<svg width="188" height="188" viewBox="0 0 188 188" fill="none" xmlns="http://www.w3.org/2000/svg">
  <path
    d="M94 30.5116C129.064 30.5116 157.488 58.9363 157.488 94C157.488 109.517 151.921 123.732 142.675 134.76L139.276 130.357L139.229 130.295L135.334 125.863L135.182 125.693C133.601 123.947 131.643 122.584 129.454 121.709L129.213 121.612L128.922 121.499C125.906 120.366 122.598 120.252 119.506 121.18C116.377 122.118 113.648 124.071 111.749 126.729L111.363 127.271C109.632 129.693 108.581 132.535 108.319 135.501L108.258 136.194L108.232 136.531C108.113 138.212 108.216 139.902 108.538 141.557L109.059 144.238L109.124 144.561C109.461 146.172 109.968 147.742 110.638 149.246L113.017 154.589C107.013 156.472 100.625 157.488 94 157.488C87.2309 157.488 80.7098 156.427 74.5923 154.465L76.9901 149.081C77.6479 147.603 78.147 146.06 78.4781 144.477L78.5417 144.161L79.0627 141.48C79.3777 139.859 79.4789 138.205 79.3628 136.56L79.3365 136.231L79.2753 135.537C79.028 132.734 78.0583 130.044 76.4631 127.73L76.3065 127.508L75.9194 126.965C74.0729 124.38 71.4199 122.482 68.3772 121.569C65.2739 120.638 61.9466 120.787 58.9384 121.99L58.6968 122.087C56.4973 122.966 54.5359 124.352 52.9721 126.132L49.0859 130.554L49.0462 130.605L45.5928 135.079C36.1872 124.006 30.5117 109.666 30.5117 94C30.5117 58.9363 58.9364 30.5116 94 30.5116Z"
    fill="#D87C58" />
  <path
    d="M94 35.3954C126.366 35.3954 152.605 61.6336 152.605 94C152.605 107.937 147.738 120.736 139.614 130.794L139.276 130.357L139.228 130.295L135.334 125.863L135.182 125.693C133.601 123.947 131.643 122.584 129.454 121.709L129.213 121.612L128.922 121.499C125.906 120.366 122.598 120.252 119.506 121.18C116.377 122.118 113.648 124.071 111.749 126.729L111.362 127.271C109.632 129.693 108.581 132.535 108.319 135.501L108.258 136.194L108.231 136.531C108.113 138.212 108.216 139.902 108.537 141.557L109.059 144.238L109.124 144.561C109.461 146.172 109.968 147.742 110.638 149.246L111.016 150.095C105.63 151.726 99.9178 152.605 94 152.605C87.9381 152.605 82.0916 151.683 76.5918 149.974L76.99 149.081C77.6479 147.603 78.147 146.06 78.478 144.477L78.5416 144.161L79.0627 141.48C79.3777 139.859 79.4789 138.205 79.3627 136.56L79.3365 136.231L79.2753 135.537C79.0279 132.734 78.0582 130.044 76.463 127.73L76.3064 127.508L75.9193 126.966C74.0729 124.381 71.4199 122.482 68.3771 121.569C65.2739 120.638 61.9466 120.787 58.9384 121.99L58.6967 122.087C56.4972 122.966 54.5358 124.352 52.972 126.132L49.0859 130.554L49.0461 130.605L48.6487 131.12C40.366 121.013 35.3953 108.087 35.3953 94C35.3953 61.6336 61.6335 35.3954 94 35.3954Z"
    fill="#FFF0C2" />
  <path
    d="M108.694 139.851C108.752 140.397 108.832 140.94 108.937 141.48L109.458 144.161L109.522 144.477C109.853 146.06 110.352 147.603 111.01 149.081L111.408 149.974C105.908 151.683 100.062 152.605 94 152.605C87.9381 152.605 82.0915 151.684 76.5918 149.975L76.99 149.081C77.6479 147.603 78.147 146.06 78.478 144.477L78.5416 144.161L79.0627 141.48C79.1676 140.94 79.2478 140.397 79.3051 139.851C84.0253 140.952 88.9446 141.535 94 141.535C99.0553 141.535 103.974 140.952 108.694 139.851Z"
    fill="#E38F4E" fill-opacity="0.33" />
  <path
    d="M36.8074 106.842C40.7517 114.403 46.1518 121.085 52.6354 126.514L49.0859 130.554L49.0461 130.605L48.6491 131.12C42.9605 124.178 38.8339 115.906 36.8074 106.842Z"
    fill="#E38F4E" fill-opacity="0.33" />
  <path
    d="M151.192 106.842C149.166 115.906 145.039 124.177 139.35 131.119L138.954 130.605L138.914 130.554L135.364 126.514C141.847 121.084 147.248 114.403 151.192 106.842Z"
    fill="#E38F4E" fill-opacity="0.33" />
  <path
    d="M41.7035 143.448L50.657 131.849L54.5005 127.475C55.8532 125.936 57.5497 124.737 59.4524 123.976L59.6941 123.879C62.2751 122.847 65.1298 122.72 67.7925 123.519V123.519C70.4031 124.302 72.6795 125.93 74.2637 128.148L74.6508 128.69C76.128 130.758 77.0248 133.184 77.2482 135.716L77.3094 136.409C77.4474 137.974 77.3654 139.55 77.0656 141.091L76.5443 143.772C76.2445 145.314 75.7704 146.818 75.1314 148.253L69.2837 161.387"
    stroke="#D87C58" stroke-width="4.88372" stroke-linecap="round" />
  <path
    d="M146.296 143.448L137.343 131.849L133.5 127.475C132.147 125.936 130.45 124.737 128.548 123.976L128.306 123.879C125.725 122.847 122.87 122.72 120.208 123.519V123.519C117.597 124.302 115.321 125.93 113.736 128.148L113.349 128.69C111.872 130.758 110.975 133.184 110.752 135.716L110.691 136.409C110.553 137.974 110.635 139.55 110.934 141.091L111.456 143.772C111.756 145.314 112.23 146.818 112.869 148.253L118.716 161.387"
    stroke="#D87C58" stroke-width="4.88372" stroke-linecap="round" />
  <path
    d="M101.741 104.655C101.21 106.29 100.175 107.714 98.7843 108.725C97.3937 109.735 95.7189 110.279 94 110.279C92.2811 110.279 90.6063 109.735 89.2157 108.725C87.8251 107.714 86.79 106.29 86.2589 104.655"
    stroke="#D87C58" stroke-width="4.06977" stroke-linecap="round" stroke-linejoin="round" />
  <ellipse cx="52.8953" cy="108.244" rx="8.95349" ry="6.10465" fill="#FF9663" />
  <ellipse cx="134.698" cy="108.244" rx="8.95349" ry="6.10465" fill="#FF9663" />
  <path
    d="M76.093 94C76.093 95.6191 75.4499 97.1718 74.305 98.3167C73.1602 99.4615 71.6074 100.105 69.9884 100.105C68.3693 100.105 66.8166 99.4615 65.6717 98.3167C64.5269 97.1718 63.8837 95.6191 63.8837 94"
    stroke="#D87C58" stroke-width="4.06977" stroke-linecap="round" stroke-linejoin="round" />
  <path
    d="M124.116 94C124.116 95.6191 123.473 97.1718 122.328 98.3167C121.183 99.4615 119.631 100.105 118.012 100.105C116.393 100.105 114.84 99.4615 113.695 98.3167C112.55 97.1718 111.907 95.6191 111.907 94"
    stroke="#D87C58" stroke-width="4.06977" stroke-linecap="round" stroke-linejoin="round" />
  <g clip-path="url(#clip0_1314_196)">
    <circle cx="116.791" cy="63.0698" r="9.76744" fill="#FFE793" />
    <circle cx="63.4767" cy="57.3721" r="21.9767" fill="#FFE793" />
    <circle cx="142.837" cy="86.2674" r="4.88372" fill="#FFE793" />
  </g>
  <defs>
    <clipPath id="clip0_1314_196">
      <rect x="35.3953" y="35.3954" width="117.209" height="117.209" rx="58.6047" fill="white" />
    </clipPath>
  </defs>
</svg>
