<svg viewBox="0 0 500 500" fill="none" xmlns="http://www.w3.org/2000/svg">
  <rect width="500" height="500" fill="#FFB7A0" />
  <circle cx="250" cy="267.2" r="151.2" fill="#A93707" fill-opacity="0.2" />
  <circle cx="250" cy="250" r="151" fill="#FFEDB3" stroke="#843C20" stroke-width="14" />
  <path fill-rule="evenodd" clip-rule="evenodd"
    d="M390.532 281.555C364.107 332.214 311.092 366.8 250 366.8C188.908 366.8 135.893 332.214 109.468 281.555C123.854 345.906 181.311 394 250 394C318.689 394 376.146 345.906 390.532 281.555Z"
    fill="#C19F47" fill-opacity="0.33" />
  <path d="M159 331.5L173.5 327L189 327.5L202.5 338.5L209 364L189 419.5L122 375.5L159 331.5Z" fill="#FFB7A0" />
  <path
    d="M121.5 373.5L143.5 345L152.944 334.253C156.268 330.471 160.436 327.525 165.112 325.655L165.705 325.418C172.047 322.881 179.062 322.569 185.604 324.531V324.531C192.019 326.456 197.612 330.457 201.505 335.907L202.456 337.239C206.086 342.32 208.289 348.281 208.838 354.501L208.989 356.206C209.328 360.05 209.126 363.922 208.39 367.71L207.109 374.297C206.372 378.087 205.207 381.78 203.637 385.307L189.268 417.578"
    stroke="#843C20" stroke-width="12" stroke-linecap="round" />
  <path d="M341 331.5L326.5 327L311 327.5L297.5 338.5L291 364L311 419.5L378 375.5L341 331.5Z" fill="#FFB7A0" />
  <path
    d="M378.5 373.5L356.5 345L347.056 334.253C343.732 330.471 339.564 327.525 334.888 325.655L334.295 325.418C327.953 322.881 320.938 322.569 314.396 324.531V324.531C307.981 326.456 302.388 330.457 298.495 335.907L297.544 337.239C293.914 342.32 291.71 348.281 291.162 354.501L291.011 356.206C290.672 360.05 290.874 363.922 291.61 367.71L292.891 374.297C293.628 378.087 294.793 381.78 296.363 385.307L310.731 417.578"
    stroke="#843C20" stroke-width="12" stroke-linecap="round" />
  <path
    d="M231 286L232.665 288.59C234.524 291.482 237.091 293.852 240.122 295.476L240.281 295.561C246.052 298.653 252.975 298.703 258.789 295.695V295.695C262.19 293.936 265.011 291.231 266.911 287.906L268 286"
    stroke="#843C20" stroke-width="10" stroke-linecap="round" />
  <path
    d="M176 258V264.006C176 266.929 176.913 269.778 178.612 272.157V272.157C180.171 274.34 182.324 276.03 184.815 277.026L185.228 277.191C188.933 278.673 193.067 278.673 196.772 277.191L197.185 277.026C199.676 276.03 201.829 274.34 203.388 272.157V272.157C205.087 269.778 206 266.929 206 264.006V258"
    stroke="#843C20" stroke-width="10" stroke-linecap="round" />
  <path
    d="M293 258.5V264.506C293 267.429 293.913 270.278 295.612 272.657V272.657C297.171 274.84 299.324 276.53 301.815 277.526L302.228 277.691C305.933 279.173 310.067 279.173 313.772 277.691L314.185 277.526C316.676 276.53 318.829 274.84 320.388 272.657V272.657C322.087 270.278 323 267.429 323 264.506V258.5"
    stroke="#843C20" stroke-width="10" stroke-linecap="round" />
  <ellipse cx="155.5" cy="279" rx="12.5" ry="10" fill="#FF9663" />
  <ellipse cx="344.5" cy="279" rx="12.5" ry="10" fill="#FF9663" />
  <circle cx="194" cy="172" r="35" fill="#F1DA88" />
  <circle cx="194" cy="172" r="36" stroke="white" stroke-opacity="0.25" stroke-width="2" />
  <ellipse cx="364" cy="219.5" rx="19" ry="27.5" fill="#F1DA88" />
  <path
    d="M364 248C369.669 248 374.693 244.673 378.258 239.514C381.825 234.35 384 227.271 384 219.5C384 211.729 381.825 204.65 378.258 199.486C374.693 194.327 369.669 191 364 191C358.331 191 353.307 194.327 349.742 199.486C346.175 204.65 344 211.729 344 219.5C344 227.271 346.175 234.35 349.742 239.514C353.307 244.673 358.331 248 364 248Z"
    stroke="white" stroke-opacity="0.25" stroke-width="2" />
  <circle cx="315.5" cy="167.5" r="22.5" fill="#F1DA88" />
  <circle cx="315.5" cy="167.5" r="23.5" stroke="white" stroke-opacity="0.25" stroke-width="2" />
  <circle cx="272" cy="211" r="9" fill="#F1DA88" />
  <circle cx="272" cy="211" r="10" stroke="white" stroke-opacity="0.25" stroke-width="2" />
  <circle cx="156" cy="229" r="5" fill="#F1DA88" />
  <circle cx="156" cy="229" r="6" stroke="white" stroke-opacity="0.25" stroke-width="2" />
  <path
    d="M385.633 107.195C382.604 106.437 382.604 102.132 385.633 101.374L394.879 99.0611C395.953 98.7923 396.792 97.9533 397.061 96.8788L399.372 87.6413C400.13 84.6115 404.436 84.6122 405.193 87.6422L407.502 96.8835C407.77 97.9587 408.61 98.7983 409.685 99.0669L418.919 101.374C421.949 102.131 421.949 106.438 418.919 107.195L409.685 109.502C408.61 109.77 407.77 110.61 407.502 111.685L405.193 120.926C404.436 123.956 400.13 123.957 399.372 120.927L397.061 111.69C396.792 110.615 395.953 109.776 394.879 109.507L385.633 107.195Z"
    fill="#FFEAD1" />
  <path
    d="M394.757 98.576L385.512 100.889C381.978 101.773 381.978 106.796 385.512 107.68L394.757 109.993C395.653 110.217 396.352 110.916 396.576 111.811L398.887 121.049C399.771 124.583 404.795 124.583 405.678 121.048L407.987 111.806C408.211 110.91 408.91 110.211 409.806 109.987L419.04 107.68C422.575 106.797 422.575 101.772 419.04 100.889L409.806 98.5818C408.91 98.358 408.211 97.6584 407.987 96.7623L405.678 87.521C404.795 83.986 399.771 83.9852 398.887 87.5199L396.576 96.7575C396.352 97.6529 395.653 98.352 394.757 98.576Z"
    stroke="#FFC555" stroke-opacity="0.5" />
  <path
    d="M59.0184 347.183C56.6701 346.595 56.6701 343.258 59.0184 342.67L66.1856 340.877C67.0186 340.669 67.6689 340.019 67.8773 339.186L69.6688 332.024C70.2564 329.676 73.5944 329.676 74.1812 332.025L75.971 339.189C76.1793 340.023 76.8301 340.674 77.6636 340.882L84.8216 342.67C87.1709 343.257 87.1709 346.596 84.8216 347.183L77.6636 348.971C76.8301 349.179 76.1793 349.83 75.971 350.664L74.1812 357.828C73.5944 360.176 70.2564 360.177 69.6688 357.828L67.8773 350.667C67.6689 349.834 67.0186 349.184 66.1856 348.975L59.0184 347.183Z"
    fill="#FFEAD1" />
  <path
    d="M66.0642 340.392L58.8971 342.185C56.0439 342.899 56.0439 346.954 58.8971 347.668L66.0643 349.461C66.7181 349.624 67.2287 350.135 67.3923 350.789L69.1837 357.95C69.8976 360.803 73.9533 360.803 74.6663 357.949L76.4561 350.785C76.6196 350.13 77.1305 349.62 77.7848 349.456L84.9428 347.668C87.7971 346.955 87.7971 342.898 84.9428 342.185L77.7848 340.397C77.1305 340.233 76.6196 339.722 76.4561 339.068L74.6663 331.904C73.9533 329.05 69.8976 329.049 69.1837 331.903L67.3923 339.064C67.2287 339.718 66.7181 340.229 66.0642 340.392Z"
    stroke="#FFC555" stroke-opacity="0.5" />
  <path
    d="M407.99 338.425C405.91 337.905 405.91 334.948 407.99 334.428L414.34 332.839C415.078 332.654 415.654 332.078 415.839 331.34L417.426 324.995C417.947 322.915 420.904 322.915 421.424 324.996L423.01 331.343C423.194 332.082 423.771 332.658 424.509 332.843L430.851 334.427C432.933 334.947 432.933 337.905 430.851 338.425L424.509 340.01C423.771 340.194 423.194 340.771 423.01 341.509L421.424 347.857C420.904 349.938 417.947 349.938 417.426 347.857L415.839 341.513C415.654 340.775 415.078 340.198 414.34 340.014L407.99 338.425Z"
    fill="#FFEAD1" />
  <path
    d="M414.219 332.354L407.869 333.942C405.283 334.589 405.283 338.264 407.869 338.91L414.219 340.499C414.778 340.639 415.214 341.075 415.354 341.634L416.941 347.979C417.588 350.564 421.263 350.564 421.909 347.978L423.495 341.631C423.635 341.071 424.071 340.635 424.631 340.495L430.973 338.911C433.559 338.264 433.559 334.588 430.973 333.942L424.631 332.358C424.071 332.218 423.635 331.781 423.495 331.222L421.909 324.875C421.263 322.289 417.588 322.288 416.941 324.874L415.354 331.219C415.214 331.778 414.778 332.214 414.219 332.354Z"
    stroke="#FFC555" stroke-opacity="0.5" />
  <path
    d="M127.635 86.8369C125.126 86.2092 125.126 82.6436 127.635 82.0159L135.293 80.1003C136.183 79.8776 136.878 79.1828 137.1 78.2928L139.014 70.6418C139.642 68.1324 143.208 68.133 143.835 70.6426L145.748 78.2967C145.97 79.1873 146.666 79.8826 147.556 80.1051L155.204 82.0157C157.714 82.6428 157.714 86.21 155.204 86.837L147.556 88.7477C146.666 88.9702 145.97 89.6655 145.748 90.5561L143.835 98.2102C143.208 100.72 139.642 100.72 139.014 98.2109L137.1 90.5599C136.878 89.67 136.183 88.9751 135.293 88.7525L127.635 86.8369Z"
    fill="#FFEAD1" />
  <path
    d="M135.172 79.6152L127.514 81.5309C124.5 82.2848 124.5 86.5679 127.514 87.3219L135.172 89.2375C135.882 89.4154 136.437 89.9704 136.615 90.6813L138.529 98.3323C139.283 101.347 143.567 101.346 144.321 98.3314L146.233 90.6773C146.411 89.9659 146.966 89.4105 147.677 89.2328L155.325 87.3221C158.34 86.5689 158.34 82.2839 155.325 81.5306L147.677 79.62C146.966 79.4423 146.411 78.8869 146.233 78.1755L144.321 70.5214C143.567 67.5068 139.283 67.5061 138.529 70.5205L136.615 78.1715C136.437 78.8823 135.882 79.4374 135.172 79.6152Z"
    stroke="#FFC555" stroke-opacity="0.5" />
  <path
    d="M67.0506 171.906C65.2147 171.447 65.2147 168.838 67.0506 168.378L72.654 166.976C73.3052 166.814 73.8136 166.305 73.9765 165.654L75.3771 160.055C75.8365 158.219 78.4462 158.219 78.905 160.056L80.3042 165.657C80.467 166.308 80.9759 166.817 81.6275 166.98L87.2236 168.378C89.0603 168.837 89.0603 171.447 87.2236 171.906L81.6275 173.304C80.9758 173.467 80.467 173.976 80.3042 174.627L78.905 180.228C78.4462 182.065 75.8365 182.065 75.3771 180.229L73.9765 174.63C73.8136 173.979 73.3052 173.471 72.654 173.308L67.0506 171.906Z"
    fill="#FFEAD1" />
  <path
    d="M72.5326 166.491L66.9293 167.893C64.5885 168.479 64.5885 171.805 66.9293 172.391L72.5326 173.793C73.0047 173.911 73.3734 174.279 73.4915 174.752L74.8921 180.35C75.4778 182.691 78.8051 182.691 79.39 180.349L80.7893 174.749C80.9073 174.276 81.2762 173.907 81.7487 173.789L87.3448 172.391C89.6866 171.806 89.6866 168.478 87.3448 167.893L81.7487 166.495C81.2763 166.377 80.9074 166.008 80.7893 165.536L79.39 159.935C78.8051 157.593 75.4778 157.593 74.8921 159.934L73.4915 165.533C73.3734 166.005 73.0047 166.373 72.5326 166.491Z"
    stroke="#FFC555" stroke-opacity="0.5" />
  <path
    d="M420.817 171.597C419.302 171.218 419.302 169.066 420.817 168.687L425.439 167.53C425.977 167.396 426.396 166.977 426.531 166.439L427.686 161.821C428.065 160.306 430.218 160.306 430.596 161.821L431.751 166.442C431.885 166.979 432.305 167.399 432.843 167.533L437.459 168.687C438.975 169.065 438.975 171.219 437.459 171.597L432.843 172.751C432.305 172.885 431.885 173.305 431.751 173.842L430.596 178.463C430.218 179.978 428.065 179.978 427.686 178.464L426.531 173.845C426.396 173.308 425.977 172.888 425.439 172.754L420.817 171.597Z"
    fill="#FFEAD1" />
  <path
    d="M425.318 167.045L420.695 168.202C418.676 168.707 418.676 171.577 420.695 172.082L425.318 173.239C425.676 173.328 425.956 173.608 426.045 173.966L427.201 178.585C427.706 180.605 430.577 180.604 431.082 178.584L432.236 173.964C432.325 173.605 432.605 173.325 432.964 173.236L437.581 172.082C439.601 171.578 439.601 168.706 437.581 168.202L432.964 167.048C432.605 166.959 432.325 166.679 432.236 166.321L431.082 161.7C430.577 159.68 427.706 159.679 427.201 161.699L426.045 166.318C425.956 166.676 425.676 166.956 425.318 167.045Z"
    stroke="#FFC555" stroke-opacity="0.5" />
  <mask id="mask0_124_132" style="mask-type:alpha" maskUnits="userSpaceOnUse" x="221" y="26" width="59" height="51">
    <path
      d="M226.359 55.7079L250.592 31.4751L274.582 55.4656L256.165 73.8825C252.953 77.0945 247.745 77.0945 244.533 73.8825L226.359 55.7079Z"
      fill="white" />
    <ellipse cx="262.587" cy="43.4703" rx="17.1352" ry="16.9638" transform="rotate(-45 262.587 43.4703)" fill="white" />
    <ellipse cx="238.112" cy="43.2281" rx="17.1352" ry="16.9638" transform="rotate(-45 238.112 43.2281)" fill="white" />
  </mask>
  <g mask="url(#mask0_124_132)">
    <rect x="214" y="43.3492" width="51.4056" height="51.4056" transform="rotate(-45 214 43.3492)" fill="#FF7C5F"
      fill-opacity="0.98" />
  </g>
</svg>