<svg width="167" height="188" viewBox="0 0 167 188" fill="none" xmlns="http://www.w3.org/2000/svg">
  <rect x="24.79" y="24" width="118.125" height="91.875" rx="16.4062" fill="white" />
  <rect x="44.4775" y="43.6875" width="78.75" height="52.5" rx="3.28125" stroke="#889096" stroke-width="1.64062"
    stroke-linecap="round" stroke-linejoin="round" stroke-dasharray="7.38 7.38" />
  <rect x="57.6025" y="55.172" width="52.5" height="13.125" rx="6.5625" fill="#0091FF" />
  <rect x="57.6025" y="74.8594" width="39.375" height="9.84375" rx="4.92187" fill="#F5D90A" />
  <path
    d="M68.54 129.547V97.0078C68.54 95.4849 69.145 94.0243 70.2219 92.9475C71.2987 91.8706 72.7593 91.2656 74.2822 91.2656C75.8051 91.2656 77.2657 91.8706 78.3426 92.9475C79.4194 94.0243 80.0244 95.4849 80.0244 97.0078V116.148C80.0244 114.626 80.6294 113.165 81.7062 112.088C82.7831 111.011 84.2437 110.406 85.7666 110.406C87.2895 110.406 88.7501 111.011 89.8269 112.088C90.9038 113.165 91.5088 114.626 91.5088 116.148V119.977C91.5088 118.454 92.1137 116.993 93.1906 115.916C94.2675 114.839 95.728 114.234 97.251 114.234C98.7739 114.234 100.234 114.839 101.311 115.916C102.388 116.993 102.993 118.454 102.993 119.977V123.799C102.995 122.278 103.6 120.82 104.675 119.744C105.752 118.667 107.212 118.063 108.735 118.063C110.258 118.063 111.719 118.667 112.796 119.744C113.873 120.821 114.478 122.282 114.478 123.805V141.031C114.478 147.123 112.058 152.965 107.75 157.273C103.443 161.58 97.6005 164 91.5088 164H84.6488H84.641C80.8398 163.999 77.0981 163.055 73.7516 161.252C70.4027 159.448 67.5543 156.841 65.4622 153.664L64.7119 152.516C63.5175 150.683 59.3245 143.374 52.1327 130.588C51.3994 129.285 51.2035 127.747 51.5867 126.301C51.9699 124.856 52.9019 123.617 54.1846 122.848C55.5513 122.03 57.1518 121.691 58.7326 121.885C60.3135 122.08 61.7844 122.795 62.9127 123.92L68.54 129.547Z"
    fill="#FFDCC3" />
  <path
    d="M80.0244 97.0078C80.0244 95.4849 79.4194 94.0243 78.3426 92.9475C77.2657 91.8706 75.8051 91.2656 74.2822 91.2656C72.7593 91.2656 71.2987 91.8706 70.2219 92.9475C69.145 94.0243 68.54 95.4849 68.54 97.0078V129.547L62.9127 123.92C61.7844 122.795 60.3135 122.08 58.7326 121.885C57.1518 121.691 55.5513 122.03 54.1846 122.848C52.9019 123.617 51.9699 124.856 51.5867 126.301C51.2035 127.747 51.3994 129.285 52.1327 130.588C59.3245 143.374 63.5175 150.683 64.7119 152.516L65.4622 153.664C67.5543 156.841 70.4027 159.448 73.7516 161.252C77.0981 163.055 80.8398 163.999 84.641 164M80.0244 97.0078V125.719M80.0244 97.0078V116.148M80.0244 123.805V116.148M80.0244 116.148C80.0244 114.626 80.6294 113.165 81.7062 112.088C82.7831 111.011 84.2437 110.406 85.7666 110.406C87.2895 110.406 88.7501 111.011 89.8269 112.088C90.9038 113.165 91.5088 114.626 91.5088 116.148M91.5088 116.148V125.719M91.5088 116.148V119.977C91.5088 118.454 92.1137 116.993 93.1906 115.916C94.2675 114.839 95.728 114.234 97.251 114.234C98.7739 114.234 100.234 114.839 101.311 115.916C102.388 116.993 102.993 118.454 102.993 119.977V123.799M102.993 125.719V123.799M102.993 123.805C102.993 123.803 102.993 123.801 102.993 123.799M91.5088 164C97.6005 164 103.443 161.58 107.75 157.273C112.058 152.965 114.478 147.123 114.478 141.031V123.805C114.478 122.282 113.873 120.821 112.796 119.744C111.719 118.667 110.258 118.063 108.735 118.063C107.212 118.063 105.752 118.667 104.675 119.744C103.6 120.82 102.995 122.278 102.993 123.799M91.5088 164H84.6488M91.5088 164H84.641M83.8525 164H84.641M84.6488 164H84.641M84.6488 164C84.6462 164 84.6436 164 84.641 164"
    stroke="#FFB381" stroke-width="3.6914" stroke-linecap="round" stroke-linejoin="round" />
</svg>
