<svg width="235" height="188" viewBox="0 0 235 188" fill="none" xmlns="http://www.w3.org/2000/svg">
  <g clip-path="url(#clip0_1314_197)">
    <rect width="73.5484" height="125.465" rx="12.9791"
      transform="matrix(0.990466 0.137761 -0.140599 0.990067 136.103 24.149)" fill="#0091FF" />
    <rect width="67.0589" height="118.975" rx="9.73435"
      transform="matrix(0.990466 0.137761 -0.140599 0.990067 138.861 27.8086)" fill="#11181C" />
    <rect width="58.4061" height="110.323" rx="5.40797"
      transform="matrix(0.990466 0.137761 -0.140599 0.990067 142.538 32.688)" fill="white" />
    <path d="M155.447 95.6357C158.172 100.383 166.504 101.542 170.445 97.7218" stroke="#333333" stroke-width="4.32638"
      stroke-linecap="round" />
    <path d="M159.567 82.0127L158.806 87.3669" stroke="#333333" stroke-width="4.32638" stroke-linecap="round" />
    <path d="M170.279 83.5026L169.519 88.8568" stroke="#333333" stroke-width="4.32638" stroke-linecap="round" />
    <rect width="21.6319" height="6.48957" rx="3.24478"
      transform="matrix(0.990466 0.137761 -0.140599 0.990067 160.141 39.5044)" fill="#11181C" />
    <rect width="21.6319" height="4.32638" rx="2.16319"
      transform="matrix(0.990466 0.137761 -0.140599 0.990067 146.15 138.023)" fill="#11181C" />
    <rect width="1.08159" height="4.32638" transform="matrix(0.990466 0.137761 -0.140599 0.990067 130.926 52.913)"
      fill="#0091FF" />
    <rect width="1.08159" height="8.65275" transform="matrix(0.990466 0.137761 -0.140599 0.990067 129.557 62.5507)"
      fill="#0091FF" />
    <rect width="1.08159" height="12.9791" transform="matrix(0.990466 0.137761 -0.140599 0.990067 203.476 72.8318)"
      fill="#0091FF" />
    <rect width="1.08159" height="8.65275" transform="matrix(0.990466 0.137761 -0.140599 0.990067 128.036 73.2592)"
      fill="#0091FF" />
  </g>
  <g clip-path="url(#clip1_1314_197)">
    <rect width="73.5484" height="125.465" rx="12.9791"
      transform="matrix(0.990466 -0.137761 0.140599 0.990067 25.0713 34.3882)" fill="#E93D82" />
    <rect width="67.0589" height="118.975" rx="9.73435"
      transform="matrix(0.990466 -0.137761 0.140599 0.990067 28.7413 37.1538)" fill="#11181C" />
    <rect width="58.4061" height="110.323" rx="5.40797"
      transform="matrix(0.990466 -0.137761 0.140599 0.990067 33.6348 40.8412)" fill="white" />
    <rect width="21.6319" height="6.48957" rx="3.24478"
      transform="matrix(0.990466 -0.137761 0.140599 0.990067 52.4548 42.5916)" fill="#11181C" />
    <rect width="21.6319" height="4.32638" rx="2.16319"
      transform="matrix(0.990466 -0.137761 0.140599 0.990067 66.4453 141.11)" fill="#11181C" />
    <rect width="1.08159" height="4.32638" transform="matrix(0.990466 -0.137761 0.140599 0.990067 28.1058 63.4502)"
      fill="#E93D82" />
    <rect width="1.08159" height="8.65275" transform="matrix(0.990466 -0.137761 0.140599 0.990067 29.4745 73.0879)"
      fill="#E93D82" />
    <rect width="1.08159" height="12.9791" transform="matrix(0.990466 -0.137761 0.140599 0.990067 103.393 62.8066)"
      fill="#E93D82" />
    <rect width="1.08159" height="8.65275" transform="matrix(0.990466 -0.137761 0.140599 0.990067 30.9952 83.7964)"
      fill="#E93D82" />
    <path d="M63.5764 97.8287C67.5176 101.649 75.8498 100.49 78.5744 95.7427" stroke="#333333" stroke-width="4.32638"
      stroke-linecap="round" />
    <path d="M63.7419 83.6097L64.5023 88.964" stroke="#333333" stroke-width="4.32638" stroke-linecap="round" />
    <path d="M74.4548 82.1198L75.2152 87.474" stroke="#333333" stroke-width="4.32638" stroke-linecap="round" />
  </g>
  <path
    d="M140.594 44.8882L137.534 53.2306C137.369 53.68 136.849 53.9048 136.397 53.747C101.702 41.6339 86.2509 60.2444 80.6707 70.3807C79.8163 71.9328 81.7346 73.3981 83.2481 72.4692C91.4861 67.4132 108.806 60.2084 130.305 70.6367C130.7 70.8282 130.892 71.2927 130.74 71.7047L127.991 79.1575C127.463 80.5873 128.91 81.9408 130.311 81.3282L152.973 71.4181C154.792 70.6224 155.582 68.4765 154.705 66.7094L143.781 44.7016C143.106 43.3412 141.119 43.4575 140.594 44.8882Z"
    fill="url(#paint0_linear_1314_197)" />
  <path
    d="M38.8724 135.264L30.0708 146.548L57.183 164L62.9308 151.224C63.5594 149.827 64.0257 148.364 64.3205 146.863L64.8314 144.263C65.127 142.758 65.208 141.221 65.0721 139.695L65.0137 139.04C64.7932 136.568 63.9098 134.201 62.455 132.185L62.0757 131.66C60.5198 129.504 58.286 127.922 55.7228 127.161C53.1014 126.383 50.288 126.508 47.7404 127.517L47.5264 127.602C45.651 128.344 43.9774 129.515 42.6422 131.018L38.8724 135.264Z"
    fill="#FFDCC3" />
  <path
    d="M195.994 135.264L204.795 146.548L177.683 164L171.935 151.224C171.307 149.827 170.84 148.364 170.545 146.863L170.035 144.263C169.739 142.758 169.658 141.221 169.794 139.695L169.852 139.04C170.073 136.568 170.956 134.201 172.411 132.185L172.79 131.66C174.346 129.504 176.58 127.922 179.143 127.161C181.765 126.383 184.578 126.508 187.126 127.517L187.34 127.602C189.215 128.344 190.889 129.515 192.224 131.018L195.994 135.264Z"
    fill="#FFDCC3" />
  <path
    d="M30.0708 146.548L38.8724 135.264L42.6422 131.018C43.9774 129.515 45.651 128.344 47.5264 127.602L47.7404 127.517C50.288 126.508 53.1014 126.383 55.7228 127.161V127.161C58.286 127.922 60.5198 129.504 62.0757 131.66L62.455 132.185C63.9098 134.201 64.7932 136.568 65.0137 139.04L65.0721 139.695C65.2081 141.221 65.127 142.758 64.8314 144.263L64.3205 146.863C64.0257 148.364 63.5594 149.827 62.9308 151.224L57.183 164"
    stroke="#FFB381" stroke-width="4.7512" stroke-linecap="round" />
  <path
    d="M204.795 146.548L195.994 135.264L192.224 131.018C190.889 129.515 189.215 128.344 187.34 127.602L187.126 127.517C184.578 126.508 181.765 126.383 179.143 127.161V127.161C176.58 127.922 174.346 129.504 172.79 131.66L172.411 132.185C170.956 134.201 170.073 136.568 169.852 139.04L169.794 139.695C169.658 141.221 169.739 142.758 170.035 144.263L170.545 146.863C170.84 148.364 171.307 149.827 171.935 151.224L177.683 164"
    stroke="#FFB381" stroke-width="4.7512" stroke-linecap="round" />
  <defs>
    <linearGradient id="paint0_linear_1314_197" x1="156.311" y1="69.9708" x2="102.218" y2="56.3268"
      gradientUnits="userSpaceOnUse">
      <stop stop-color="#FF1983" />
      <stop offset="1" stop-color="#FF9F2D" />
    </linearGradient>
    <clipPath id="clip0_1314_197">
      <rect width="76.4876" height="125.49" fill="white"
        transform="matrix(0.990466 0.137761 -0.140599 0.990067 135.032 24)" />
    </clipPath>
    <clipPath id="clip1_1314_197">
      <rect width="76.4876" height="125.49" fill="white"
        transform="matrix(0.990466 -0.137761 0.140599 0.990067 24 34.5372)" />
    </clipPath>
  </defs>
</svg>
