<svg viewBox="0 0 400 34" xmlns="http://www.w3.org/2000/svg" preserveAspectRatio="xMinYMin slice">
  <path
    d="M0 3.99912L13.3333 10.8406C26.6667 17.6826 53.3333 31.3687 80 32.5019C106.667 33.7206 133.333 22.1721 160 17.6821C186.667 13.1921 213.333 15.33 240 21.1029C266.667 26.8758 293.333 35.8619 320 33.6597C346.667 31.3719 373.333 17.6826 386.667 10.8406L400 4V0H386.667C373.333 0 346.667 0 320 0C293.333 0 266.667 0 240 0C213.333 0 186.667 0 160 0C133.333 0 106.667 0 80 0C53.3333 0 26.6667 0 13.3333 0H0V3.99912Z" />
</svg>
