<svg width="344" height="344" viewBox="0 0 344 344" fill="none" xmlns="http://www.w3.org/2000/svg">
  <path
    d="M172 16C258.156 16 328 85.8436 328 172C328 210.127 314.319 245.056 291.603 272.154L283.25 261.334L283.133 261.183L273.563 250.292L273.189 249.875C269.306 245.585 264.493 242.236 259.116 240.085L258.522 239.847L257.809 239.569C250.397 236.785 242.269 236.505 234.672 238.784C226.983 241.091 220.278 245.888 215.612 252.42L214.662 253.751C210.41 259.704 207.828 266.686 207.185 273.974L207.034 275.678L206.969 276.505C206.677 280.636 206.93 284.788 207.721 288.855L209.002 295.442L209.161 296.235C209.989 300.193 211.237 304.053 212.882 307.748L218.728 320.877C203.975 325.503 188.279 328 172 328C155.367 328 139.344 325.393 124.312 320.572L130.204 307.341C131.82 303.71 133.047 299.919 133.86 296.03L134.017 295.252L135.297 288.664C136.071 284.683 136.32 280.618 136.034 276.575L135.97 275.767L135.819 274.062C135.212 267.174 132.829 260.566 128.909 254.88L128.524 254.333L127.573 253.001C123.036 246.649 116.517 241.984 109.041 239.741C101.416 237.454 93.2402 237.819 85.8486 240.775L85.2549 241.013C79.8503 243.175 75.031 246.58 71.1885 250.952L61.6396 261.819L61.542 261.944L53.0566 272.937C29.9456 245.73 16 210.494 16 172C16 85.8436 85.8436 16 172 16Z"
    fill="#D87C58" />
  <path
    d="M172 28C251.529 28 316 92.471 316 172C316 206.245 304.042 237.694 284.08 262.409L283.25 261.334L283.133 261.183L273.563 250.292L273.189 249.875C269.306 245.585 264.493 242.236 259.116 240.085L258.522 239.847L257.809 239.569C250.397 236.785 242.269 236.505 234.672 238.784C226.983 241.091 220.278 245.888 215.612 252.42L214.662 253.751C210.41 259.704 207.828 266.686 207.185 273.974L207.034 275.678L206.969 276.505C206.677 280.636 206.93 284.788 207.721 288.855L209.002 295.442L209.161 296.235C209.989 300.193 211.237 304.053 212.882 307.748L213.81 309.833C200.578 313.842 186.541 316 172 316C157.105 316 142.739 313.736 129.226 309.537L130.204 307.341C131.82 303.71 133.047 299.919 133.86 296.03L134.017 295.252L135.297 288.664C136.071 284.683 136.32 280.618 136.034 276.575L135.97 275.767L135.819 274.062C135.212 267.174 132.829 260.566 128.909 254.88L128.524 254.333L127.573 253.001C123.036 246.649 116.517 241.984 109.041 239.741C101.416 237.454 93.2402 237.819 85.8486 240.775L85.2549 241.013C79.8503 243.175 75.031 246.58 71.1885 250.952L61.6396 261.819L61.542 261.944L60.5654 263.209C40.2137 238.374 28 206.614 28 172C28 92.471 92.471 28 172 28Z"
    fill="#FFF0C2" />
  <path
    d="M208.106 284.663C208.247 286.003 208.445 287.338 208.703 288.664L209.983 295.252L210.14 296.03C210.953 299.919 212.18 303.71 213.796 307.341L214.773 309.537C201.26 313.736 186.895 316 172 316C157.105 316 142.739 313.737 129.226 309.538L130.204 307.341C131.82 303.71 133.047 299.919 133.86 296.03L134.017 295.252L135.297 288.664C135.555 287.338 135.752 286.003 135.893 284.663C147.491 287.367 159.578 288.8 172 288.8C184.422 288.8 196.509 287.367 208.106 284.663Z"
    fill="#E38F4E" fill-opacity="0.33" />
  <path
    d="M31.4697 203.555C41.1613 222.134 54.4301 238.551 70.3613 251.893L61.6396 261.819L61.542 261.944L60.5664 263.208C46.5886 246.151 36.449 225.827 31.4697 203.555Z"
    fill="#E38F4E" fill-opacity="0.33" />
  <path
    d="M312.529 203.555C307.55 225.827 297.409 246.149 283.432 263.206L282.458 261.944L282.36 261.819L273.637 251.892C289.568 238.55 302.838 222.134 312.529 203.555Z"
    fill="#E38F4E" fill-opacity="0.33" />
  <path
    d="M43.5001 293.5L65.5001 265L74.944 254.253C78.2679 250.471 82.4364 247.525 87.1116 245.655L87.7054 245.418C94.0474 242.881 101.062 242.569 107.604 244.531V244.531C114.019 246.456 119.612 250.457 123.505 255.907L124.456 257.239C128.086 262.32 130.29 268.281 130.838 274.501L130.989 276.206C131.328 280.05 131.126 283.922 130.39 287.71L129.109 294.297C128.372 298.087 127.207 301.78 125.637 305.307L111.269 337.578"
    stroke="#D87C58" stroke-width="12" stroke-linecap="round" />
  <path
    d="M300.5 293.5L278.5 265L269.056 254.253C265.732 250.471 261.564 247.525 256.888 245.655L256.295 245.418C249.953 242.881 242.938 242.569 236.396 244.531V244.531C229.981 246.456 224.388 250.457 220.495 255.907L219.544 257.239C215.914 262.32 213.71 268.281 213.162 274.501L213.011 276.206C212.672 280.05 212.874 283.922 213.61 287.71L214.891 294.297C215.628 298.087 216.793 301.78 218.363 305.307L232.731 337.578"
    stroke="#D87C58" stroke-width="12" stroke-linecap="round" />
  <path
    d="M191.021 198.18C189.716 202.197 187.173 205.698 183.756 208.18C180.339 210.663 176.224 212 172 212C167.776 212 163.661 210.663 160.244 208.18C156.827 205.698 154.284 202.197 152.979 198.18"
    stroke="#D87C58" stroke-width="10" stroke-linecap="round" stroke-linejoin="round" />
  <ellipse cx="71" cy="207" rx="22" ry="15" fill="#FF9663" />
  <ellipse cx="272" cy="207" rx="22" ry="15" fill="#FF9663" />
  <path
    d="M128 172C128 175.978 126.42 179.794 123.607 182.607C120.794 185.42 116.978 187 113 187C109.022 187 105.206 185.42 102.393 182.607C99.5804 179.794 98 175.978 98 172"
    stroke="#D87C58" stroke-width="10" stroke-linecap="round" stroke-linejoin="round" />
  <path
    d="M246 172C246 175.978 244.42 179.794 241.607 182.607C238.794 185.42 234.978 187 231 187C227.022 187 223.206 185.42 220.393 182.607C217.58 179.794 216 175.978 216 172"
    stroke="#D87C58" stroke-width="10" stroke-linecap="round" stroke-linejoin="round" />
  <mask id="mask0_426_272" style="mask-type:alpha" maskUnits="userSpaceOnUse" x="28" y="28" width="288" height="288">
    <circle cx="172" cy="172" r="144" fill="#D9D9D9" />
  </mask>
  <g mask="url(#mask0_426_272)">
    <circle cx="228" cy="96" r="24" fill="#FFE793" />
    <circle cx="97" cy="82" r="54" fill="#FFE793" />
    <circle cx="292" cy="153" r="12" fill="#FFE793" />
  </g>
</svg>
