<svg viewBox="0 0 144 36" xmlns="http://www.w3.org/2000/svg">
  <path
    d="M7.408 11.772L7.768 14.868L7.624 14.616C8.2 13.512 8.98 12.648 9.964 12.024C10.972 11.4 12.136 11.088 13.456 11.088C14.296 11.088 15.04 11.22 15.688 11.484C16.336 11.748 16.876 12.12 17.308 12.6C17.764 13.08 18.064 13.68 18.208 14.4L17.992 14.472C18.616 13.44 19.42 12.624 20.404 12.024C21.388 11.4 22.432 11.088 23.536 11.088C25.024 11.088 26.212 11.52 27.1 12.384C27.988 13.224 28.444 14.316 28.468 15.66V27H24.472V17.244C24.448 16.5 24.292 15.888 24.004 15.408C23.716 14.904 23.176 14.628 22.384 14.58C21.52 14.58 20.776 14.856 20.152 15.408C19.528 15.936 19.036 16.632 18.676 17.496C18.34 18.336 18.172 19.236 18.172 20.196V27H14.104V17.244C14.08 16.5 13.912 15.888 13.6 15.408C13.288 14.904 12.736 14.628 11.944 14.58C11.104 14.58 10.372 14.856 9.748 15.408C9.124 15.936 8.644 16.632 8.308 17.496C7.972 18.336 7.804 19.224 7.804 20.16V27H3.772V11.772H7.408ZM32.7464 19.224C32.7464 17.688 33.1064 16.308 33.8264 15.084C34.5464 13.836 35.5544 12.864 36.8504 12.168C38.1704 11.448 39.6584 11.088 41.3144 11.088C43.0184 11.088 44.4944 11.448 45.7424 12.168C47.0144 12.864 47.9984 13.836 48.6944 15.084C49.3904 16.308 49.7384 17.688 49.7384 19.224C49.7384 20.76 49.3904 22.152 48.6944 23.4C47.9984 24.624 47.0144 25.596 45.7424 26.316C44.4944 27.036 43.0064 27.396 41.2784 27.396C39.6464 27.396 38.1824 27.072 36.8864 26.424C35.5904 25.752 34.5704 24.804 33.8264 23.58C33.1064 22.356 32.7464 20.904 32.7464 19.224ZM36.8144 19.26C36.8144 20.148 37.0064 20.964 37.3904 21.708C37.7744 22.428 38.3024 23.004 38.9744 23.436C39.6464 23.868 40.3904 24.084 41.2064 24.084C42.0944 24.084 42.8624 23.868 43.5104 23.436C44.1824 23.004 44.6984 22.428 45.0584 21.708C45.4424 20.964 45.6344 20.148 45.6344 19.26C45.6344 18.348 45.4424 17.532 45.0584 16.812C44.6984 16.068 44.1824 15.48 43.5104 15.048C42.8624 14.616 42.0944 14.4 41.2064 14.4C40.3664 14.4 39.6104 14.628 38.9384 15.084C38.2904 15.516 37.7744 16.092 37.3904 16.812C37.0064 17.532 36.8144 18.348 36.8144 19.26ZM57.6111 11.772L57.9711 15.048L57.8271 14.616C58.3551 13.56 59.1351 12.72 60.1671 12.096C61.2231 11.448 62.4711 11.124 63.9111 11.124C65.3511 11.124 66.5391 11.544 67.4751 12.384C68.4111 13.224 68.8911 14.328 68.9151 15.696V27H64.8831V17.136C64.8591 16.368 64.6431 15.756 64.2351 15.3C63.8271 14.82 63.1791 14.568 62.2911 14.544C61.4751 14.544 60.7431 14.796 60.0951 15.3C59.4471 15.78 58.9311 16.452 58.5471 17.316C58.1871 18.156 58.0071 19.128 58.0071 20.232V27H53.9751V11.772H57.6111ZM80.8792 27.396C79.4392 27.396 78.1312 27.096 76.9552 26.496C75.8032 25.896 74.8912 25.008 74.2192 23.832C73.5472 22.632 73.2112 21.156 73.2112 19.404C73.2112 17.676 73.5592 16.2 74.2552 14.976C74.9752 13.728 75.9112 12.768 77.0632 12.096C78.2392 11.424 79.5112 11.088 80.8792 11.088C82.3432 11.088 83.5192 11.376 84.4072 11.952C85.3192 12.528 86.0272 13.212 86.5312 14.004L86.3152 14.58L86.7112 11.772H90.4192V27H86.3872V23.292L86.7832 24.264C86.6872 24.408 86.4952 24.648 86.2072 24.984C85.9192 25.296 85.5232 25.644 85.0192 26.028C84.5152 26.412 83.9152 26.736 83.2192 27C82.5472 27.264 81.7672 27.396 80.8792 27.396ZM81.9952 24.084C82.7152 24.084 83.3632 23.952 83.9392 23.688C84.5392 23.424 85.0432 23.052 85.4512 22.572C85.8832 22.092 86.1952 21.516 86.3872 20.844V17.532C86.1952 16.908 85.8832 16.368 85.4512 15.912C85.0192 15.432 84.4912 15.06 83.8672 14.796C83.2672 14.532 82.5952 14.4 81.8512 14.4C81.0352 14.4 80.2792 14.604 79.5832 15.012C78.8872 15.42 78.3232 15.984 77.8912 16.704C77.4832 17.424 77.2792 18.252 77.2792 19.188C77.2792 20.1 77.4952 20.928 77.9272 21.672C78.3592 22.416 78.9352 23.004 79.6552 23.436C80.3752 23.868 81.1552 24.084 81.9952 24.084ZM95.1588 17.28H101.891V20.808H95.1588V17.28ZM119.556 25.596C118.884 26.148 118.056 26.592 117.072 26.928C116.112 27.24 115.14 27.396 114.156 27.396C112.476 27.396 111 27.072 109.728 26.424C108.456 25.752 107.46 24.828 106.74 23.652C106.044 22.452 105.696 21.024 105.696 19.368C105.696 17.712 106.068 16.284 106.812 15.084C107.58 13.884 108.576 12.972 109.8 12.348C111.048 11.7 112.368 11.376 113.76 11.376C115.032 11.376 116.16 11.556 117.144 11.916C118.128 12.252 118.98 12.72 119.7 13.32L117.684 15.948C117.3 15.636 116.796 15.348 116.172 15.084C115.572 14.796 114.888 14.652 114.12 14.652C113.304 14.652 112.56 14.856 111.888 15.264C111.24 15.672 110.712 16.236 110.304 16.956C109.92 17.652 109.728 18.456 109.728 19.368C109.728 20.232 109.932 21.024 110.34 21.744C110.748 22.464 111.312 23.04 112.032 23.472C112.752 23.88 113.58 24.084 114.516 24.084C115.116 24.084 115.668 24 116.172 23.832C116.7 23.64 117.156 23.388 117.54 23.076L119.556 25.596ZM130.098 27.396C128.658 27.396 127.35 27.096 126.174 26.496C125.022 25.896 124.11 25.008 123.438 23.832C122.766 22.632 122.43 21.156 122.43 19.404C122.43 17.676 122.778 16.2 123.474 14.976C124.194 13.728 125.13 12.768 126.282 12.096C127.458 11.424 128.73 11.088 130.098 11.088C131.562 11.088 132.738 11.376 133.626 11.952C134.538 12.528 135.246 13.212 135.75 14.004L135.534 14.58L135.93 11.772H139.638V27H135.606V23.292L136.002 24.264C135.906 24.408 135.714 24.648 135.426 24.984C135.138 25.296 134.742 25.644 134.238 26.028C133.734 26.412 133.134 26.736 132.438 27C131.766 27.264 130.986 27.396 130.098 27.396ZM131.214 24.084C131.934 24.084 132.582 23.952 133.158 23.688C133.758 23.424 134.262 23.052 134.67 22.572C135.102 22.092 135.414 21.516 135.606 20.844V17.532C135.414 16.908 135.102 16.368 134.67 15.912C134.238 15.432 133.71 15.06 133.086 14.796C132.486 14.532 131.814 14.4 131.07 14.4C130.254 14.4 129.498 14.604 128.802 15.012C128.106 15.42 127.542 15.984 127.11 16.704C126.702 17.424 126.498 18.252 126.498 19.188C126.498 20.1 126.714 20.928 127.146 21.672C127.578 22.416 128.154 23.004 128.874 23.436C129.594 23.868 130.374 24.084 131.214 24.084Z" />
</svg>